<mxfile host="app.diagrams.net" modified="2024-04-02T23:43:46.713Z" agent="Mozilla/5.0 (X11; Linux x86_64) AppleWebKit/537.36 (KHTML, like Gecko) Chrome/123.0.0.0 Safari/537.36" etag="g6Kmjlie_YNykjd0IKQZ" version="24.2.1" type="device">
  <diagram name="페이지-1" id="0b34LrqIym16WMbHvWpZ">
    <mxGraphModel dx="404" dy="683" grid="1" gridSize="10" guides="1" tooltips="1" connect="1" arrows="1" fold="1" page="1" pageScale="1" pageWidth="827" pageHeight="1169" math="0" shadow="0">
      <root>
        <mxCell id="0" />
        <mxCell id="1" parent="0" />
        <mxCell id="sxcvnOyQPPzPX0grKyA3-14" value="&lt;br&gt;&lt;br&gt;User" style="shape=actor;whiteSpace=wrap;html=1;fontStyle=1;fontSize=24;" parent="1" vertex="1">
          <mxGeometry x="840" y="660" width="70" height="90" as="geometry" />
        </mxCell>
        <mxCell id="sxcvnOyQPPzPX0grKyA3-15" value="nokubectl" style="rounded=1;whiteSpace=wrap;html=1;fontStyle=1;fontSize=24;fillColor=#FFCC99;" parent="1" vertex="1">
          <mxGeometry x="920" y="640" width="120" height="130" as="geometry" />
        </mxCell>
        <mxCell id="sxcvnOyQPPzPX0grKyA3-16" value="orch.io" style="rounded=1;whiteSpace=wrap;html=1;fontStyle=1;fontSize=24;fillColor=#FF8000;" parent="1" vertex="1">
          <mxGeometry x="1060" y="640" width="135" height="400" as="geometry" />
        </mxCell>
        <mxCell id="sxcvnOyQPPzPX0grKyA3-17" value="&lt;div&gt;&lt;span style=&quot;background-color: initial;&quot;&gt;KXCA&lt;/span&gt;&lt;br&gt;&lt;/div&gt;" style="rounded=0;whiteSpace=wrap;html=1;fontStyle=1;fontSize=32;" parent="1" vertex="1">
          <mxGeometry x="1233" y="510" width="160" height="60" as="geometry" />
        </mxCell>
        <mxCell id="sxcvnOyQPPzPX0grKyA3-18" value="orch.io DB" style="shape=cylinder3;whiteSpace=wrap;html=1;boundedLbl=1;backgroundOutline=1;size=15;fontStyle=1;fontSize=16;" parent="1" vertex="1">
          <mxGeometry x="1090" y="1065" width="80" height="80" as="geometry" />
        </mxCell>
        <mxCell id="sxcvnOyQPPzPX0grKyA3-19" value="nokubelet&lt;div&gt;&lt;br&gt;&lt;/div&gt;&lt;div&gt;&lt;br&gt;&lt;/div&gt;" style="rounded=1;whiteSpace=wrap;html=1;fontStyle=1;fontSize=16;align=left;fillColor=#FF8000;" parent="1" vertex="1">
          <mxGeometry x="1380" y="640" width="100" height="90" as="geometry" />
        </mxCell>
        <mxCell id="sxcvnOyQPPzPX0grKyA3-20" value="nokubelet&lt;div&gt;&lt;br&gt;&lt;/div&gt;&lt;div&gt;&lt;br&gt;&lt;/div&gt;" style="rounded=1;whiteSpace=wrap;html=1;fontStyle=1;fontSize=16;align=left;fillColor=#FF8000;" parent="1" vertex="1">
          <mxGeometry x="1380" y="880" width="100" height="90" as="geometry" />
        </mxCell>
        <mxCell id="sxcvnOyQPPzPX0grKyA3-23" value="Kube&lt;br&gt;api&lt;br&gt;server" style="rounded=1;whiteSpace=wrap;html=1;fontStyle=1;fontSize=24;fillColor=#007FFF;" parent="1" vertex="1">
          <mxGeometry x="1540" y="642" width="100" height="140" as="geometry" />
        </mxCell>
        <mxCell id="sxcvnOyQPPzPX0grKyA3-24" value="Kube&amp;nbsp;&lt;br&gt;api&lt;br&gt;server" style="rounded=1;whiteSpace=wrap;html=1;fontStyle=1;fontSize=24;fillColor=#007FFF;" parent="1" vertex="1">
          <mxGeometry x="1550" y="881" width="100" height="148" as="geometry" />
        </mxCell>
        <mxCell id="sxcvnOyQPPzPX0grKyA3-26" value="Kubernetes Cluster" style="rounded=0;whiteSpace=wrap;html=1;fontStyle=1;fontSize=24;fillColor=#007FFF;" parent="1" vertex="1">
          <mxGeometry x="1380" y="820" width="250" height="40" as="geometry" />
        </mxCell>
        <mxCell id="sxcvnOyQPPzPX0grKyA3-27" value="Kubernetes Cluster" style="rounded=0;whiteSpace=wrap;html=1;fontStyle=1;fontSize=24;fillColor=#007FFF;" parent="1" vertex="1">
          <mxGeometry x="1380" y="1065" width="250" height="40" as="geometry" />
        </mxCell>
        <mxCell id="sxcvnOyQPPzPX0grKyA3-28" value="nkia-pkg" style="rounded=0;whiteSpace=wrap;html=1;fontStyle=1;fontSize=16;fillColor=#FFFF00;" parent="1" vertex="1">
          <mxGeometry x="1450" y="680" width="70" height="30" as="geometry" />
        </mxCell>
        <mxCell id="sxcvnOyQPPzPX0grKyA3-29" value="nkia-pkg" style="rounded=0;whiteSpace=wrap;html=1;fontStyle=1;fontSize=16;fillColor=#FFFF00;" parent="1" vertex="1">
          <mxGeometry x="1460" y="910" width="70" height="30" as="geometry" />
        </mxCell>
        <mxCell id="sxcvnOyQPPzPX0grKyA3-30" value="kube&lt;br&gt;config&lt;br&gt;x509&lt;br&gt;data 1" style="shape=note;whiteSpace=wrap;html=1;backgroundOutline=1;darkOpacity=0.05;size=11;fontStyle=1;fontSize=16;fillColor=#FFFF00;" parent="1" vertex="1">
          <mxGeometry x="1410" y="745" width="60" height="65" as="geometry" />
        </mxCell>
        <mxCell id="sxcvnOyQPPzPX0grKyA3-31" value="kube&lt;br&gt;config&lt;br&gt;x509&lt;br&gt;data 2" style="shape=note;whiteSpace=wrap;html=1;backgroundOutline=1;darkOpacity=0.05;size=10;fontStyle=1;fontSize=16;fillColor=#FFFF00;" parent="1" vertex="1">
          <mxGeometry x="1410" y="978" width="60" height="72" as="geometry" />
        </mxCell>
        <mxCell id="sxcvnOyQPPzPX0grKyA3-32" value="merged&lt;br&gt;kube&lt;br&gt;config&lt;br&gt;x509&lt;br&gt;data" style="shape=note;whiteSpace=wrap;html=1;backgroundOutline=1;darkOpacity=0.05;size=18;fontStyle=1;fontSize=16;fillColor=#FFFF00;" parent="1" vertex="1">
          <mxGeometry x="1201" y="1060" width="99" height="90" as="geometry" />
        </mxCell>
        <mxCell id="sxcvnOyQPPzPX0grKyA3-33" value="OAuth&lt;br&gt;Authority" style="ellipse;whiteSpace=wrap;html=1;aspect=fixed;fontStyle=1;fontSize=24;" parent="1" vertex="1">
          <mxGeometry x="913" y="902" width="134" height="134" as="geometry" />
        </mxCell>
        <mxCell id="sxcvnOyQPPzPX0grKyA3-34" value="" style="edgeStyle=segmentEdgeStyle;endArrow=classic;html=1;curved=0;rounded=0;endSize=8;startSize=8;exitX=1.015;exitY=0.456;exitDx=0;exitDy=0;exitPerimeter=0;" parent="1" source="sxcvnOyQPPzPX0grKyA3-15" target="sxcvnOyQPPzPX0grKyA3-16" edge="1">
          <mxGeometry width="50" height="50" relative="1" as="geometry">
            <mxPoint x="1040" y="700" as="sourcePoint" />
            <mxPoint x="1070" y="750" as="targetPoint" />
            <Array as="points">
              <mxPoint x="1060" y="699" />
              <mxPoint x="1060" y="840" />
            </Array>
          </mxGeometry>
        </mxCell>
        <mxCell id="sxcvnOyQPPzPX0grKyA3-35" value="" style="edgeStyle=segmentEdgeStyle;endArrow=classic;html=1;curved=0;rounded=0;endSize=8;startSize=8;exitX=0;exitY=0.5;exitDx=0;exitDy=0;entryX=0.996;entryY=0.176;entryDx=0;entryDy=0;entryPerimeter=0;" parent="1" source="sxcvnOyQPPzPX0grKyA3-19" target="sxcvnOyQPPzPX0grKyA3-16" edge="1">
          <mxGeometry width="50" height="50" relative="1" as="geometry">
            <mxPoint x="1370" y="730" as="sourcePoint" />
            <mxPoint x="1260" y="710" as="targetPoint" />
            <Array as="points">
              <mxPoint x="1330" y="685" />
              <mxPoint x="1330" y="710" />
            </Array>
          </mxGeometry>
        </mxCell>
        <mxCell id="sxcvnOyQPPzPX0grKyA3-36" value="" style="edgeStyle=segmentEdgeStyle;endArrow=classic;html=1;curved=0;rounded=0;endSize=8;startSize=8;entryX=1.012;entryY=0.674;entryDx=0;entryDy=0;entryPerimeter=0;" parent="1" target="sxcvnOyQPPzPX0grKyA3-16" edge="1">
          <mxGeometry width="50" height="50" relative="1" as="geometry">
            <mxPoint x="1379" y="910" as="sourcePoint" />
            <mxPoint x="1259" y="910" as="targetPoint" />
            <Array as="points" />
          </mxGeometry>
        </mxCell>
        <mxCell id="sxcvnOyQPPzPX0grKyA3-37" value="" style="edgeStyle=segmentEdgeStyle;endArrow=classic;html=1;curved=0;rounded=0;endSize=8;startSize=8;exitX=1;exitY=0.5;exitDx=0;exitDy=0;" parent="1" source="sxcvnOyQPPzPX0grKyA3-28" edge="1">
          <mxGeometry width="50" height="50" relative="1" as="geometry">
            <mxPoint x="1330" y="840" as="sourcePoint" />
            <mxPoint x="1540" y="695" as="targetPoint" />
          </mxGeometry>
        </mxCell>
        <mxCell id="sxcvnOyQPPzPX0grKyA3-38" value="" style="edgeStyle=segmentEdgeStyle;endArrow=classic;html=1;curved=0;rounded=0;endSize=8;startSize=8;entryX=-0.004;entryY=0.296;entryDx=0;entryDy=0;entryPerimeter=0;exitX=1;exitY=0.5;exitDx=0;exitDy=0;" parent="1" source="sxcvnOyQPPzPX0grKyA3-29" target="sxcvnOyQPPzPX0grKyA3-24" edge="1">
          <mxGeometry width="50" height="50" relative="1" as="geometry">
            <mxPoint x="1500" y="1020" as="sourcePoint" />
            <mxPoint x="1410" y="838" as="targetPoint" />
            <Array as="points">
              <mxPoint x="1540" y="924" />
            </Array>
          </mxGeometry>
        </mxCell>
        <mxCell id="sxcvnOyQPPzPX0grKyA3-39" value="" style="edgeStyle=segmentEdgeStyle;endArrow=classic;html=1;curved=0;rounded=0;endSize=8;startSize=8;entryX=0.291;entryY=0.036;entryDx=0;entryDy=0;exitX=0.25;exitY=1;exitDx=0;exitDy=0;entryPerimeter=0;" parent="1" source="sxcvnOyQPPzPX0grKyA3-15" target="sxcvnOyQPPzPX0grKyA3-33" edge="1">
          <mxGeometry width="50" height="50" relative="1" as="geometry">
            <mxPoint x="970" y="800" as="sourcePoint" />
            <mxPoint x="1100" y="840" as="targetPoint" />
          </mxGeometry>
        </mxCell>
        <mxCell id="sxcvnOyQPPzPX0grKyA3-40" value="" style="edgeStyle=segmentEdgeStyle;endArrow=classic;html=1;curved=0;rounded=0;endSize=8;startSize=8;exitX=0.009;exitY=0.378;exitDx=0;exitDy=0;exitPerimeter=0;" parent="1" source="sxcvnOyQPPzPX0grKyA3-16" target="sxcvnOyQPPzPX0grKyA3-33" edge="1">
          <mxGeometry width="50" height="50" relative="1" as="geometry">
            <mxPoint x="1011" y="905" as="sourcePoint" />
            <mxPoint x="990" y="810" as="targetPoint" />
            <Array as="points">
              <mxPoint x="980" y="791" />
            </Array>
          </mxGeometry>
        </mxCell>
        <mxCell id="sxcvnOyQPPzPX0grKyA3-46" value="Multi&lt;br&gt;Terminal&lt;br&gt;Socket&lt;br&gt;Chal." style="ellipse;whiteSpace=wrap;html=1;fontStyle=7;fontSize=16;fillColor=#FF8000;strokeWidth=3;" parent="1" vertex="1">
          <mxGeometry x="1256" y="735" width="114" height="75" as="geometry" />
        </mxCell>
        <mxCell id="sxcvnOyQPPzPX0grKyA3-47" value="Multi&lt;br&gt;Terminal&lt;br&gt;Socket&lt;br&gt;Chal." style="ellipse;whiteSpace=wrap;html=1;fontStyle=7;fontSize=16;fillColor=#FF8000;strokeWidth=3;" parent="1" vertex="1">
          <mxGeometry x="1256" y="956" width="114" height="80" as="geometry" />
        </mxCell>
        <mxCell id="sxcvnOyQPPzPX0grKyA3-48" value="" style="endArrow=none;html=1;rounded=0;exitX=0.433;exitY=0.015;exitDx=0;exitDy=0;exitPerimeter=0;" parent="1" source="sxcvnOyQPPzPX0grKyA3-46" edge="1">
          <mxGeometry width="50" height="50" relative="1" as="geometry">
            <mxPoint x="1295" y="730" as="sourcePoint" />
            <mxPoint x="1305" y="710" as="targetPoint" />
          </mxGeometry>
        </mxCell>
        <mxCell id="sxcvnOyQPPzPX0grKyA3-49" value="" style="endArrow=none;html=1;rounded=0;exitX=0;exitY=0.5;exitDx=0;exitDy=0;exitPerimeter=0;entryX=1.009;entryY=0.567;entryDx=0;entryDy=0;entryPerimeter=0;" parent="1" source="sxcvnOyQPPzPX0grKyA3-30" target="sxcvnOyQPPzPX0grKyA3-46" edge="1">
          <mxGeometry width="50" height="50" relative="1" as="geometry">
            <mxPoint x="1290" y="950" as="sourcePoint" />
            <mxPoint x="1340" y="900" as="targetPoint" />
          </mxGeometry>
        </mxCell>
        <mxCell id="sxcvnOyQPPzPX0grKyA3-50" value="" style="endArrow=none;html=1;rounded=0;entryX=1.011;entryY=0.535;entryDx=0;entryDy=0;entryPerimeter=0;exitX=0;exitY=0.289;exitDx=0;exitDy=0;exitPerimeter=0;" parent="1" source="sxcvnOyQPPzPX0grKyA3-31" target="sxcvnOyQPPzPX0grKyA3-47" edge="1">
          <mxGeometry width="50" height="50" relative="1" as="geometry">
            <mxPoint x="1410" y="997" as="sourcePoint" />
            <mxPoint x="1340" y="900" as="targetPoint" />
          </mxGeometry>
        </mxCell>
        <mxCell id="sxcvnOyQPPzPX0grKyA3-51" value="" style="endArrow=none;html=1;rounded=0;" parent="1" edge="1">
          <mxGeometry width="50" height="50" relative="1" as="geometry">
            <mxPoint x="1310" y="957" as="sourcePoint" />
            <mxPoint x="1310" y="910" as="targetPoint" />
          </mxGeometry>
        </mxCell>
        <mxCell id="sxcvnOyQPPzPX0grKyA3-52" value="" style="endArrow=none;html=1;rounded=0;exitX=0;exitY=0;exitDx=31;exitDy=0;exitPerimeter=0;" parent="1" source="sxcvnOyQPPzPX0grKyA3-32" edge="1">
          <mxGeometry width="50" height="50" relative="1" as="geometry">
            <mxPoint x="1250" y="940" as="sourcePoint" />
            <mxPoint x="1232" y="770" as="targetPoint" />
          </mxGeometry>
        </mxCell>
        <mxCell id="sxcvnOyQPPzPX0grKyA3-53" value="" style="endArrow=none;html=1;rounded=0;entryX=0;entryY=0.5;entryDx=0;entryDy=0;" parent="1" edge="1">
          <mxGeometry width="50" height="50" relative="1" as="geometry">
            <mxPoint x="1232" y="771" as="sourcePoint" />
            <mxPoint x="1257" y="771" as="targetPoint" />
          </mxGeometry>
        </mxCell>
        <mxCell id="sxcvnOyQPPzPX0grKyA3-54" value="" style="endArrow=none;html=1;rounded=0;" parent="1" edge="1">
          <mxGeometry width="50" height="50" relative="1" as="geometry">
            <mxPoint x="1231" y="998" as="sourcePoint" />
            <mxPoint x="1256" y="998" as="targetPoint" />
          </mxGeometry>
        </mxCell>
        <mxCell id="sxcvnOyQPPzPX0grKyA3-55" value="" style="endArrow=none;html=1;rounded=0;exitX=1;exitY=0.5;exitDx=0;exitDy=0;exitPerimeter=0;entryX=0;entryY=0.5;entryDx=0;entryDy=0;entryPerimeter=0;" parent="1" source="sxcvnOyQPPzPX0grKyA3-18" target="sxcvnOyQPPzPX0grKyA3-32" edge="1">
          <mxGeometry width="50" height="50" relative="1" as="geometry">
            <mxPoint x="1200" y="1120" as="sourcePoint" />
            <mxPoint x="1250" y="1070" as="targetPoint" />
          </mxGeometry>
        </mxCell>
        <mxCell id="e1TSqP8IaKVb6tndJHTg-1" value="" style="edgeStyle=segmentEdgeStyle;endArrow=classic;html=1;curved=0;rounded=0;endSize=8;startSize=8;exitX=0.5;exitY=1;exitDx=0;exitDy=0;" edge="1" parent="1" source="sxcvnOyQPPzPX0grKyA3-17">
          <mxGeometry width="50" height="50" relative="1" as="geometry">
            <mxPoint x="1060" y="550" as="sourcePoint" />
            <mxPoint x="1250" y="710" as="targetPoint" />
            <Array as="points">
              <mxPoint x="1313" y="600" />
              <mxPoint x="1250" y="600" />
            </Array>
          </mxGeometry>
        </mxCell>
      </root>
    </mxGraphModel>
  </diagram>
</mxfile>
